# xmcd CD database file
#
# Track frame offsets:
#	150
#	15180
#	29587
#	47212
#	65742
#	84030
#	100157
#	113710
#	130142
#	142945
#	156985
#
# Disc length: 2484 seconds
#
# Revision: 0
# Processed by: cddbd v1.5.1PL0 Copyright (c) Steve Scherf et al.
# Submitted via: CDex 1.51
#
DISCID=8609b20b
DTITLE=Jon and Laura Miller - Dream Falls
DYEAR=1995
DGENRE=New Age
TTITLE0=Morning by a waterfall
TTITLE1=Nightweaving
TTITLE2=Sand Peak
TTITLE3=Blue Skies
TTITLE4=Sunshine and Calico
TTITLE5=Dawn Release
TTITLE6=Heartspinning
TTITLE7=Rain Call
TTITLE8=Dream Falls
TTITLE9=Clown Horse
TTITLE10=Flower
EXTD=YEAR: 1995
EXTT0=
EXTT1=
EXTT2=
EXTT3=
EXTT4=
EXTT5=
EXTT6=
EXTT7=
EXTT8=
EXTT9=
EXTT10=
PLAYORDER=
